<mxfile host="app.diagrams.net" modified="2023-07-27T11:04:36.057Z" agent="Mozilla/5.0 (Windows NT 10.0; Win64; x64) AppleWebKit/537.36 (KHTML, like Gecko) Chrome/114.0.0.0 Safari/537.36" etag="8WrgelNhhD0McaZDg5U-" version="21.6.5" type="device">
  <diagram id="R2lEEEUBdFMjLlhIrx00" name="Page-1">
    <mxGraphModel dx="1050" dy="581" grid="1" gridSize="10" guides="1" tooltips="1" connect="1" arrows="1" fold="1" page="1" pageScale="1" pageWidth="850" pageHeight="1100" math="0" shadow="0" extFonts="Permanent Marker^https://fonts.googleapis.com/css?family=Permanent+Marker">
      <root>
        <mxCell id="0" />
        <mxCell id="1" parent="0" />
        <mxCell id="UXnOD_pZGPyxFs4ZcDwk-1" value="Você deverá criar a modelagem para o catálogo de filmes, observando a seguinte situação:&#xa;&#xa;&#xa;- um filme possui apenas um único gênero.&#xa;- um gênero pode definir mais de um filme" style="text;whiteSpace=wrap;align=center;fontSize=14;" parent="1" vertex="1">
          <mxGeometry x="130" y="30" width="570" height="110" as="geometry" />
        </mxCell>
        <mxCell id="UXnOD_pZGPyxFs4ZcDwk-2" value="&lt;font style=&quot;font-size: 13px;&quot;&gt;Filme&lt;/font&gt;" style="rounded=0;whiteSpace=wrap;html=1;" parent="1" vertex="1">
          <mxGeometry x="155" y="225" width="140" height="70" as="geometry" />
        </mxCell>
        <mxCell id="UXnOD_pZGPyxFs4ZcDwk-3" value="&lt;font style=&quot;font-size: 13px;&quot;&gt;Gênero&lt;/font&gt;" style="rounded=0;whiteSpace=wrap;html=1;" parent="1" vertex="1">
          <mxGeometry x="555" y="225" width="140" height="70" as="geometry" />
        </mxCell>
        <mxCell id="UXnOD_pZGPyxFs4ZcDwk-12" style="edgeStyle=orthogonalEdgeStyle;rounded=0;orthogonalLoop=1;jettySize=auto;html=1;exitX=0;exitY=0.5;exitDx=0;exitDy=0;endArrow=none;endFill=0;" parent="1" source="UXnOD_pZGPyxFs4ZcDwk-11" target="UXnOD_pZGPyxFs4ZcDwk-2" edge="1">
          <mxGeometry relative="1" as="geometry" />
        </mxCell>
        <mxCell id="UXnOD_pZGPyxFs4ZcDwk-13" style="edgeStyle=orthogonalEdgeStyle;rounded=0;orthogonalLoop=1;jettySize=auto;html=1;entryX=0;entryY=0.5;entryDx=0;entryDy=0;endArrow=none;endFill=0;" parent="1" source="UXnOD_pZGPyxFs4ZcDwk-11" target="UXnOD_pZGPyxFs4ZcDwk-3" edge="1">
          <mxGeometry relative="1" as="geometry" />
        </mxCell>
        <mxCell id="UXnOD_pZGPyxFs4ZcDwk-11" value="&lt;font style=&quot;font-size: 13px;&quot;&gt;Possui&lt;/font&gt;" style="rhombus;whiteSpace=wrap;html=1;" parent="1" vertex="1">
          <mxGeometry x="375" y="220" width="80" height="80" as="geometry" />
        </mxCell>
        <mxCell id="UXnOD_pZGPyxFs4ZcDwk-15" value="N" style="text;html=1;align=center;verticalAlign=middle;resizable=0;points=[];autosize=1;strokeColor=none;fillColor=none;fontSize=13;" parent="1" vertex="1">
          <mxGeometry x="310" y="225" width="30" height="30" as="geometry" />
        </mxCell>
        <mxCell id="UXnOD_pZGPyxFs4ZcDwk-16" value="1" style="text;html=1;align=center;verticalAlign=middle;resizable=0;points=[];autosize=1;strokeColor=none;fillColor=none;fontSize=13;" parent="1" vertex="1">
          <mxGeometry x="510" y="220" width="30" height="30" as="geometry" />
        </mxCell>
        <mxCell id="UXnOD_pZGPyxFs4ZcDwk-18" value="&lt;font style=&quot;font-size: 13px;&quot;&gt;Relacionamento 1 : N&lt;/font&gt;" style="text;html=1;align=center;verticalAlign=middle;resizable=0;points=[];autosize=1;strokeColor=none;fillColor=none;" parent="1" vertex="1">
          <mxGeometry x="340" y="160" width="150" height="30" as="geometry" />
        </mxCell>
        <mxCell id="M5wf6AJzeCKx1367M0Sg-1" value="Filme" style="shape=table;startSize=30;container=1;collapsible=1;childLayout=tableLayout;fixedRows=1;rowLines=0;fontStyle=1;align=center;resizeLast=1;html=1;swimlaneLine=1;" parent="1" vertex="1">
          <mxGeometry x="515" y="350" width="180" height="120" as="geometry" />
        </mxCell>
        <mxCell id="M5wf6AJzeCKx1367M0Sg-42" style="shape=tableRow;horizontal=0;startSize=0;swimlaneHead=0;swimlaneBody=0;fillColor=none;collapsible=0;dropTarget=0;points=[[0,0.5],[1,0.5]];portConstraint=eastwest;top=0;left=0;right=0;bottom=1;swimlaneLine=1;" parent="M5wf6AJzeCKx1367M0Sg-1" vertex="1">
          <mxGeometry y="30" width="180" height="30" as="geometry" />
        </mxCell>
        <mxCell id="M5wf6AJzeCKx1367M0Sg-43" value="PK" style="shape=partialRectangle;connectable=0;fillColor=none;top=0;left=0;bottom=0;right=0;fontStyle=1;overflow=hidden;whiteSpace=wrap;html=1;" parent="M5wf6AJzeCKx1367M0Sg-42" vertex="1">
          <mxGeometry width="30" height="30" as="geometry">
            <mxRectangle width="30" height="30" as="alternateBounds" />
          </mxGeometry>
        </mxCell>
        <mxCell id="M5wf6AJzeCKx1367M0Sg-44" value="IdFilme" style="shape=partialRectangle;connectable=0;fillColor=none;top=0;left=0;bottom=0;right=0;align=left;spacingLeft=6;fontStyle=5;overflow=hidden;whiteSpace=wrap;html=1;" parent="M5wf6AJzeCKx1367M0Sg-42" vertex="1">
          <mxGeometry x="30" width="150" height="30" as="geometry">
            <mxRectangle width="150" height="30" as="alternateBounds" />
          </mxGeometry>
        </mxCell>
        <mxCell id="M5wf6AJzeCKx1367M0Sg-2" value="" style="shape=tableRow;horizontal=0;startSize=0;swimlaneHead=0;swimlaneBody=0;fillColor=none;collapsible=0;dropTarget=0;points=[[0,0.5],[1,0.5]];portConstraint=eastwest;top=0;left=0;right=0;bottom=1;" parent="M5wf6AJzeCKx1367M0Sg-1" vertex="1">
          <mxGeometry y="60" width="180" height="30" as="geometry" />
        </mxCell>
        <mxCell id="M5wf6AJzeCKx1367M0Sg-3" value="FK" style="shape=partialRectangle;connectable=0;fillColor=none;top=0;left=0;bottom=0;right=0;fontStyle=1;overflow=hidden;whiteSpace=wrap;html=1;" parent="M5wf6AJzeCKx1367M0Sg-2" vertex="1">
          <mxGeometry width="30" height="30" as="geometry">
            <mxRectangle width="30" height="30" as="alternateBounds" />
          </mxGeometry>
        </mxCell>
        <mxCell id="M5wf6AJzeCKx1367M0Sg-4" value="IdGenero" style="shape=partialRectangle;connectable=0;fillColor=none;top=0;left=0;bottom=0;right=0;align=left;spacingLeft=6;fontStyle=5;overflow=hidden;whiteSpace=wrap;html=1;" parent="M5wf6AJzeCKx1367M0Sg-2" vertex="1">
          <mxGeometry x="30" width="150" height="30" as="geometry">
            <mxRectangle width="150" height="30" as="alternateBounds" />
          </mxGeometry>
        </mxCell>
        <mxCell id="M5wf6AJzeCKx1367M0Sg-5" value="" style="shape=tableRow;horizontal=0;startSize=0;swimlaneHead=0;swimlaneBody=0;fillColor=none;collapsible=0;dropTarget=0;points=[[0,0.5],[1,0.5]];portConstraint=eastwest;top=0;left=0;right=0;bottom=0;" parent="M5wf6AJzeCKx1367M0Sg-1" vertex="1">
          <mxGeometry y="90" width="180" height="30" as="geometry" />
        </mxCell>
        <mxCell id="M5wf6AJzeCKx1367M0Sg-6" value="" style="shape=partialRectangle;connectable=0;fillColor=none;top=0;left=0;bottom=0;right=0;editable=1;overflow=hidden;whiteSpace=wrap;html=1;" parent="M5wf6AJzeCKx1367M0Sg-5" vertex="1">
          <mxGeometry width="30" height="30" as="geometry">
            <mxRectangle width="30" height="30" as="alternateBounds" />
          </mxGeometry>
        </mxCell>
        <mxCell id="M5wf6AJzeCKx1367M0Sg-7" value="Titulo" style="shape=partialRectangle;connectable=0;fillColor=none;top=0;left=0;bottom=0;right=0;align=left;spacingLeft=6;overflow=hidden;whiteSpace=wrap;html=1;" parent="M5wf6AJzeCKx1367M0Sg-5" vertex="1">
          <mxGeometry x="30" width="150" height="30" as="geometry">
            <mxRectangle width="150" height="30" as="alternateBounds" />
          </mxGeometry>
        </mxCell>
        <mxCell id="M5wf6AJzeCKx1367M0Sg-48" value="Gênero" style="shape=table;startSize=30;container=1;collapsible=1;childLayout=tableLayout;fixedRows=1;rowLines=0;fontStyle=1;align=center;resizeLast=1;html=1;swimlaneLine=1;" parent="1" vertex="1">
          <mxGeometry x="155" y="360" width="180" height="90" as="geometry" />
        </mxCell>
        <mxCell id="M5wf6AJzeCKx1367M0Sg-52" value="" style="shape=tableRow;horizontal=0;startSize=0;swimlaneHead=0;swimlaneBody=0;fillColor=none;collapsible=0;dropTarget=0;points=[[0,0.5],[1,0.5]];portConstraint=eastwest;top=0;left=0;right=0;bottom=1;" parent="M5wf6AJzeCKx1367M0Sg-48" vertex="1">
          <mxGeometry y="30" width="180" height="30" as="geometry" />
        </mxCell>
        <mxCell id="M5wf6AJzeCKx1367M0Sg-53" value="PK" style="shape=partialRectangle;connectable=0;fillColor=none;top=0;left=0;bottom=0;right=0;fontStyle=1;overflow=hidden;whiteSpace=wrap;html=1;" parent="M5wf6AJzeCKx1367M0Sg-52" vertex="1">
          <mxGeometry width="30" height="30" as="geometry">
            <mxRectangle width="30" height="30" as="alternateBounds" />
          </mxGeometry>
        </mxCell>
        <mxCell id="M5wf6AJzeCKx1367M0Sg-54" value="IdGenero" style="shape=partialRectangle;connectable=0;fillColor=none;top=0;left=0;bottom=0;right=0;align=left;spacingLeft=6;fontStyle=5;overflow=hidden;whiteSpace=wrap;html=1;" parent="M5wf6AJzeCKx1367M0Sg-52" vertex="1">
          <mxGeometry x="30" width="150" height="30" as="geometry">
            <mxRectangle width="150" height="30" as="alternateBounds" />
          </mxGeometry>
        </mxCell>
        <mxCell id="M5wf6AJzeCKx1367M0Sg-55" value="" style="shape=tableRow;horizontal=0;startSize=0;swimlaneHead=0;swimlaneBody=0;fillColor=none;collapsible=0;dropTarget=0;points=[[0,0.5],[1,0.5]];portConstraint=eastwest;top=0;left=0;right=0;bottom=0;" parent="M5wf6AJzeCKx1367M0Sg-48" vertex="1">
          <mxGeometry y="60" width="180" height="30" as="geometry" />
        </mxCell>
        <mxCell id="M5wf6AJzeCKx1367M0Sg-56" value="" style="shape=partialRectangle;connectable=0;fillColor=none;top=0;left=0;bottom=0;right=0;editable=1;overflow=hidden;whiteSpace=wrap;html=1;" parent="M5wf6AJzeCKx1367M0Sg-55" vertex="1">
          <mxGeometry width="30" height="30" as="geometry">
            <mxRectangle width="30" height="30" as="alternateBounds" />
          </mxGeometry>
        </mxCell>
        <mxCell id="M5wf6AJzeCKx1367M0Sg-57" value="NomeGenero" style="shape=partialRectangle;connectable=0;fillColor=none;top=0;left=0;bottom=0;right=0;align=left;spacingLeft=6;overflow=hidden;whiteSpace=wrap;html=1;" parent="M5wf6AJzeCKx1367M0Sg-55" vertex="1">
          <mxGeometry x="30" width="150" height="30" as="geometry">
            <mxRectangle width="150" height="30" as="alternateBounds" />
          </mxGeometry>
        </mxCell>
        <mxCell id="M5wf6AJzeCKx1367M0Sg-58" value="" style="edgeStyle=entityRelationEdgeStyle;fontSize=12;html=1;endArrow=ERoneToMany;rounded=0;exitX=1;exitY=0.5;exitDx=0;exitDy=0;entryX=0;entryY=0.5;entryDx=0;entryDy=0;" parent="1" source="M5wf6AJzeCKx1367M0Sg-52" target="M5wf6AJzeCKx1367M0Sg-2" edge="1">
          <mxGeometry width="100" height="100" relative="1" as="geometry">
            <mxPoint x="380" y="440.0000000000002" as="sourcePoint" />
            <mxPoint x="470" y="370" as="targetPoint" />
            <Array as="points">
              <mxPoint x="430" y="490.0000000000002" />
            </Array>
          </mxGeometry>
        </mxCell>
        <mxCell id="M5wf6AJzeCKx1367M0Sg-59" value="Conceitual" style="text;html=1;align=center;verticalAlign=middle;resizable=0;points=[];autosize=1;strokeColor=#b85450;fillColor=#f8cecc;" parent="1" vertex="1">
          <mxGeometry x="710" y="245" width="80" height="30" as="geometry" />
        </mxCell>
        <mxCell id="M5wf6AJzeCKx1367M0Sg-60" value="Lógico" style="text;html=1;align=center;verticalAlign=middle;resizable=0;points=[];autosize=1;strokeColor=#b85450;fillColor=#f8cecc;" parent="1" vertex="1">
          <mxGeometry x="720" y="395" width="60" height="30" as="geometry" />
        </mxCell>
        <mxCell id="M5wf6AJzeCKx1367M0Sg-61" value="Assets" style="childLayout=tableLayout;recursiveResize=0;shadow=0;fillColor=#FFFFFF;" parent="1" vertex="1">
          <mxGeometry x="150" y="520" width="186" height="127" as="geometry" />
        </mxCell>
        <mxCell id="M5wf6AJzeCKx1367M0Sg-62" style="shape=tableRow;horizontal=0;startSize=0;swimlaneHead=0;swimlaneBody=0;top=0;left=0;bottom=0;right=0;dropTarget=0;collapsible=0;recursiveResize=0;expand=0;fontStyle=0;strokeColor=inherit;fillColor=#ffffff;" parent="M5wf6AJzeCKx1367M0Sg-61" vertex="1">
          <mxGeometry width="186" height="33" as="geometry" />
        </mxCell>
        <mxCell id="M5wf6AJzeCKx1367M0Sg-63" value="IdGenero" style="connectable=0;recursiveResize=0;strokeColor=inherit;fillColor=#A7C942;align=center;fontStyle=1;fontColor=#FFFFFF;html=1;" parent="M5wf6AJzeCKx1367M0Sg-62" vertex="1">
          <mxGeometry width="90" height="33" as="geometry">
            <mxRectangle width="90" height="33" as="alternateBounds" />
          </mxGeometry>
        </mxCell>
        <mxCell id="M5wf6AJzeCKx1367M0Sg-65" value="NomeGenero" style="connectable=0;recursiveResize=0;strokeColor=inherit;fillColor=#A7C942;align=center;fontStyle=1;fontColor=#FFFFFF;html=1;" parent="M5wf6AJzeCKx1367M0Sg-62" vertex="1">
          <mxGeometry x="90" width="96" height="33" as="geometry">
            <mxRectangle width="96" height="33" as="alternateBounds" />
          </mxGeometry>
        </mxCell>
        <mxCell id="M5wf6AJzeCKx1367M0Sg-66" value="" style="shape=tableRow;horizontal=0;startSize=0;swimlaneHead=0;swimlaneBody=0;top=0;left=0;bottom=0;right=0;dropTarget=0;collapsible=0;recursiveResize=0;expand=0;fontStyle=0;strokeColor=inherit;fillColor=#ffffff;" parent="M5wf6AJzeCKx1367M0Sg-61" vertex="1">
          <mxGeometry y="33" width="186" height="32" as="geometry" />
        </mxCell>
        <mxCell id="M5wf6AJzeCKx1367M0Sg-67" value="1" style="connectable=0;recursiveResize=0;strokeColor=inherit;fillColor=inherit;align=center;whiteSpace=wrap;html=1;" parent="M5wf6AJzeCKx1367M0Sg-66" vertex="1">
          <mxGeometry width="90" height="32" as="geometry">
            <mxRectangle width="90" height="32" as="alternateBounds" />
          </mxGeometry>
        </mxCell>
        <mxCell id="M5wf6AJzeCKx1367M0Sg-69" value="Terror" style="connectable=0;recursiveResize=0;strokeColor=inherit;fillColor=inherit;align=center;whiteSpace=wrap;html=1;" parent="M5wf6AJzeCKx1367M0Sg-66" vertex="1">
          <mxGeometry x="90" width="96" height="32" as="geometry">
            <mxRectangle width="96" height="32" as="alternateBounds" />
          </mxGeometry>
        </mxCell>
        <mxCell id="M5wf6AJzeCKx1367M0Sg-70" value="" style="shape=tableRow;horizontal=0;startSize=0;swimlaneHead=0;swimlaneBody=0;top=0;left=0;bottom=0;right=0;dropTarget=0;collapsible=0;recursiveResize=0;expand=0;fontStyle=1;strokeColor=inherit;fillColor=#EAF2D3;" parent="M5wf6AJzeCKx1367M0Sg-61" vertex="1">
          <mxGeometry y="65" width="186" height="31" as="geometry" />
        </mxCell>
        <mxCell id="M5wf6AJzeCKx1367M0Sg-71" value="2" style="connectable=0;recursiveResize=0;strokeColor=inherit;fillColor=inherit;whiteSpace=wrap;html=1;" parent="M5wf6AJzeCKx1367M0Sg-70" vertex="1">
          <mxGeometry width="90" height="31" as="geometry">
            <mxRectangle width="90" height="31" as="alternateBounds" />
          </mxGeometry>
        </mxCell>
        <mxCell id="M5wf6AJzeCKx1367M0Sg-73" value="Ação" style="connectable=0;recursiveResize=0;strokeColor=inherit;fillColor=inherit;whiteSpace=wrap;html=1;" parent="M5wf6AJzeCKx1367M0Sg-70" vertex="1">
          <mxGeometry x="90" width="96" height="31" as="geometry">
            <mxRectangle width="96" height="31" as="alternateBounds" />
          </mxGeometry>
        </mxCell>
        <mxCell id="M5wf6AJzeCKx1367M0Sg-78" value="" style="shape=tableRow;horizontal=0;startSize=0;swimlaneHead=0;swimlaneBody=0;top=0;left=0;bottom=0;right=0;dropTarget=0;collapsible=0;recursiveResize=0;expand=0;fontStyle=1;strokeColor=inherit;fillColor=#EAF2D3;" parent="M5wf6AJzeCKx1367M0Sg-61" vertex="1">
          <mxGeometry y="96" width="186" height="31" as="geometry" />
        </mxCell>
        <mxCell id="M5wf6AJzeCKx1367M0Sg-79" value="3" style="connectable=0;recursiveResize=0;whiteSpace=wrap;html=1;" parent="M5wf6AJzeCKx1367M0Sg-78" vertex="1">
          <mxGeometry width="90" height="31" as="geometry">
            <mxRectangle width="90" height="31" as="alternateBounds" />
          </mxGeometry>
        </mxCell>
        <mxCell id="M5wf6AJzeCKx1367M0Sg-81" value="Suspense" style="connectable=0;recursiveResize=0;whiteSpace=wrap;html=1;" parent="M5wf6AJzeCKx1367M0Sg-78" vertex="1">
          <mxGeometry x="90" width="96" height="31" as="geometry">
            <mxRectangle width="96" height="31" as="alternateBounds" />
          </mxGeometry>
        </mxCell>
        <mxCell id="M5wf6AJzeCKx1367M0Sg-106" value="Assets" style="childLayout=tableLayout;recursiveResize=0;shadow=0;" parent="1" vertex="1">
          <mxGeometry x="425" y="520" width="280" height="129" as="geometry" />
        </mxCell>
        <mxCell id="M5wf6AJzeCKx1367M0Sg-107" style="shape=tableRow;horizontal=0;startSize=0;swimlaneHead=0;swimlaneBody=0;top=0;left=0;bottom=0;right=0;dropTarget=0;collapsible=0;recursiveResize=0;expand=0;fontStyle=0;strokeColor=inherit;fillColor=#ffffff;" parent="M5wf6AJzeCKx1367M0Sg-106" vertex="1">
          <mxGeometry width="280" height="33" as="geometry" />
        </mxCell>
        <mxCell id="M5wf6AJzeCKx1367M0Sg-108" value="IdFIlme" style="connectable=0;recursiveResize=0;strokeColor=inherit;fillColor=#A7C942;align=center;fontStyle=1;fontColor=#FFFFFF;html=1;" parent="M5wf6AJzeCKx1367M0Sg-107" vertex="1">
          <mxGeometry width="93" height="33" as="geometry">
            <mxRectangle width="93" height="33" as="alternateBounds" />
          </mxGeometry>
        </mxCell>
        <mxCell id="M5wf6AJzeCKx1367M0Sg-109" value="IdGenero" style="connectable=0;recursiveResize=0;strokeColor=inherit;fillColor=#A7C942;align=center;fontStyle=1;fontColor=#FFFFFF;html=1;" parent="M5wf6AJzeCKx1367M0Sg-107" vertex="1">
          <mxGeometry x="93" width="94" height="33" as="geometry">
            <mxRectangle width="94" height="33" as="alternateBounds" />
          </mxGeometry>
        </mxCell>
        <mxCell id="M5wf6AJzeCKx1367M0Sg-110" value="Titulo" style="connectable=0;recursiveResize=0;strokeColor=inherit;fillColor=#A7C942;align=center;fontStyle=1;fontColor=#FFFFFF;html=1;" parent="M5wf6AJzeCKx1367M0Sg-107" vertex="1">
          <mxGeometry x="187" width="93" height="33" as="geometry">
            <mxRectangle width="93" height="33" as="alternateBounds" />
          </mxGeometry>
        </mxCell>
        <mxCell id="M5wf6AJzeCKx1367M0Sg-111" value="" style="shape=tableRow;horizontal=0;startSize=0;swimlaneHead=0;swimlaneBody=0;top=0;left=0;bottom=0;right=0;dropTarget=0;collapsible=0;recursiveResize=0;expand=0;fontStyle=0;strokeColor=inherit;fillColor=#ffffff;" parent="M5wf6AJzeCKx1367M0Sg-106" vertex="1">
          <mxGeometry y="33" width="280" height="32" as="geometry" />
        </mxCell>
        <mxCell id="M5wf6AJzeCKx1367M0Sg-112" value="1" style="connectable=0;recursiveResize=0;strokeColor=inherit;fillColor=inherit;align=center;whiteSpace=wrap;html=1;" parent="M5wf6AJzeCKx1367M0Sg-111" vertex="1">
          <mxGeometry width="93" height="32" as="geometry">
            <mxRectangle width="93" height="32" as="alternateBounds" />
          </mxGeometry>
        </mxCell>
        <mxCell id="M5wf6AJzeCKx1367M0Sg-113" value="3" style="connectable=0;recursiveResize=0;strokeColor=inherit;fillColor=inherit;align=center;whiteSpace=wrap;html=1;" parent="M5wf6AJzeCKx1367M0Sg-111" vertex="1">
          <mxGeometry x="93" width="94" height="32" as="geometry">
            <mxRectangle width="94" height="32" as="alternateBounds" />
          </mxGeometry>
        </mxCell>
        <mxCell id="M5wf6AJzeCKx1367M0Sg-114" value="Corra" style="connectable=0;recursiveResize=0;strokeColor=inherit;fillColor=inherit;align=center;whiteSpace=wrap;html=1;" parent="M5wf6AJzeCKx1367M0Sg-111" vertex="1">
          <mxGeometry x="187" width="93" height="32" as="geometry">
            <mxRectangle width="93" height="32" as="alternateBounds" />
          </mxGeometry>
        </mxCell>
        <mxCell id="M5wf6AJzeCKx1367M0Sg-115" value="" style="shape=tableRow;horizontal=0;startSize=0;swimlaneHead=0;swimlaneBody=0;top=0;left=0;bottom=0;right=0;dropTarget=0;collapsible=0;recursiveResize=0;expand=0;fontStyle=1;strokeColor=inherit;fillColor=#EAF2D3;" parent="M5wf6AJzeCKx1367M0Sg-106" vertex="1">
          <mxGeometry y="65" width="280" height="31" as="geometry" />
        </mxCell>
        <mxCell id="M5wf6AJzeCKx1367M0Sg-116" value="2" style="connectable=0;recursiveResize=0;strokeColor=inherit;fillColor=inherit;whiteSpace=wrap;html=1;" parent="M5wf6AJzeCKx1367M0Sg-115" vertex="1">
          <mxGeometry width="93" height="31" as="geometry">
            <mxRectangle width="93" height="31" as="alternateBounds" />
          </mxGeometry>
        </mxCell>
        <mxCell id="M5wf6AJzeCKx1367M0Sg-117" value="1" style="connectable=0;recursiveResize=0;strokeColor=inherit;fillColor=inherit;whiteSpace=wrap;html=1;" parent="M5wf6AJzeCKx1367M0Sg-115" vertex="1">
          <mxGeometry x="93" width="94" height="31" as="geometry">
            <mxRectangle width="94" height="31" as="alternateBounds" />
          </mxGeometry>
        </mxCell>
        <mxCell id="M5wf6AJzeCKx1367M0Sg-118" value="A Freira" style="connectable=0;recursiveResize=0;strokeColor=inherit;fillColor=inherit;whiteSpace=wrap;html=1;" parent="M5wf6AJzeCKx1367M0Sg-115" vertex="1">
          <mxGeometry x="187" width="93" height="31" as="geometry">
            <mxRectangle width="93" height="31" as="alternateBounds" />
          </mxGeometry>
        </mxCell>
        <mxCell id="M5wf6AJzeCKx1367M0Sg-119" value="" style="shape=tableRow;horizontal=0;startSize=0;swimlaneHead=0;swimlaneBody=0;top=0;left=0;bottom=0;right=0;dropTarget=0;collapsible=0;recursiveResize=0;expand=0;fontStyle=0;strokeColor=inherit;fillColor=#ffffff;" parent="M5wf6AJzeCKx1367M0Sg-106" vertex="1">
          <mxGeometry y="96" width="280" height="33" as="geometry" />
        </mxCell>
        <mxCell id="M5wf6AJzeCKx1367M0Sg-120" value="3" style="connectable=0;recursiveResize=0;strokeColor=inherit;fillColor=inherit;fontStyle=0;align=center;whiteSpace=wrap;html=1;" parent="M5wf6AJzeCKx1367M0Sg-119" vertex="1">
          <mxGeometry width="93" height="33" as="geometry">
            <mxRectangle width="93" height="33" as="alternateBounds" />
          </mxGeometry>
        </mxCell>
        <mxCell id="M5wf6AJzeCKx1367M0Sg-121" value="2" style="connectable=0;recursiveResize=0;strokeColor=inherit;fillColor=inherit;fontStyle=0;align=center;whiteSpace=wrap;html=1;" parent="M5wf6AJzeCKx1367M0Sg-119" vertex="1">
          <mxGeometry x="93" width="94" height="33" as="geometry">
            <mxRectangle width="94" height="33" as="alternateBounds" />
          </mxGeometry>
        </mxCell>
        <mxCell id="M5wf6AJzeCKx1367M0Sg-122" value="John Wick" style="connectable=0;recursiveResize=0;strokeColor=inherit;fillColor=inherit;fontStyle=0;align=center;whiteSpace=wrap;html=1;" parent="M5wf6AJzeCKx1367M0Sg-119" vertex="1">
          <mxGeometry x="187" width="93" height="33" as="geometry">
            <mxRectangle width="93" height="33" as="alternateBounds" />
          </mxGeometry>
        </mxCell>
        <mxCell id="M5wf6AJzeCKx1367M0Sg-127" value="Físico" style="text;html=1;align=center;verticalAlign=middle;resizable=0;points=[];autosize=1;strokeColor=#b85450;fillColor=#f8cecc;" parent="1" vertex="1">
          <mxGeometry x="720" y="568.5" width="60" height="30" as="geometry" />
        </mxCell>
        <mxCell id="JfoY_fUpJ-Edv0TszmGg-4" value="&lt;b&gt;Gênero&lt;/b&gt;" style="text;html=1;align=center;verticalAlign=middle;resizable=0;points=[];autosize=1;strokeColor=#82b366;fillColor=#d5e8d4;" vertex="1" parent="1">
          <mxGeometry x="210" y="480" width="70" height="30" as="geometry" />
        </mxCell>
        <mxCell id="JfoY_fUpJ-Edv0TszmGg-5" value="&lt;b&gt;Gênero&lt;/b&gt;" style="text;html=1;align=center;verticalAlign=middle;resizable=0;points=[];autosize=1;strokeColor=#82b366;fillColor=#d5e8d4;" vertex="1" parent="1">
          <mxGeometry x="530" y="480" width="70" height="30" as="geometry" />
        </mxCell>
      </root>
    </mxGraphModel>
  </diagram>
</mxfile>
